<svg width="116" height="115" viewBox="0 0 116 115" fill="none" xmlns="http://www.w3.org/2000/svg">
<path d="M69.9792 47.918C69.9792 44.1252 75.0238 43.1199 76.3621 46.6687C79.5995 55.2531 81.9584 62.9325 81.9584 67.0843C81.9584 80.3161 71.2319 91.0427 58 91.0427C44.7682 91.0427 34.0417 80.3161 34.0417 67.0843C34.0417 62.6237 36.7644 54.0915 40.3742 44.7397C45.0502 32.6254 47.3882 26.5683 50.2743 26.242C51.1978 26.1376 52.2053 26.3253 53.0292 26.7553C55.6042 28.0989 55.6042 34.7053 55.6042 47.918C55.6042 51.8876 58.8222 55.1055 62.7917 55.1055C66.7613 55.1055 69.9792 51.8876 69.9792 47.918Z" stroke="#222222" stroke-width="2"/>
<path d="M53.2083 91.0417L51.4465 86.6373C49.9684 82.942 49.2294 81.0944 49.5065 79.2241C49.7837 77.3537 51.0268 75.7998 53.513 72.692L54.8765 70.9877C56.318 69.1859 57.0387 68.2849 58 68.2849C58.9612 68.2849 59.682 69.1859 61.1234 70.9877L62.4869 72.692C64.9731 75.7998 66.2162 77.3537 66.4934 79.2241C66.7706 81.0944 66.0315 82.942 64.5534 86.6372L62.7916 91.0417" stroke="#222222" stroke-width="2"/>
</svg>
