<svg width="283" height="50" viewBox="0 0 283 50" fill="none" xmlns="http://www.w3.org/2000/svg">
<path d="M24.0018 1C17.4837 1 16.6657 1.0285 14.1056 1.145C11.5506 1.262 9.8066 1.6665 8.28059 2.26C6.70207 2.873 5.36306 3.693 4.02904 5.0275C2.69403 6.3615 1.87402 7.7005 1.25901 9.2785C0.664007 10.805 0.259003 12.5495 0.144002 15.1035C0.0300004 17.6635 0 18.482 0 25C0 31.518 0.0290008 32.3335 0.145002 34.8935C0.262503 37.4485 0.667007 39.1925 1.26001 40.7185C1.87352 42.297 2.69353 43.636 4.02804 44.97C5.36156 46.305 6.70057 47.127 8.27809 47.74C9.8051 48.3335 11.5496 48.738 14.1041 48.855C16.6642 48.9715 17.4817 49 23.9993 49C30.5178 49 31.3333 48.9715 33.8934 48.855C36.4484 48.738 38.1944 48.3335 39.7214 47.74C41.2994 47.127 42.6364 46.305 43.97 44.97C45.305 43.636 46.125 42.297 46.74 40.719C47.33 39.1925 47.735 37.448 47.855 34.894C47.97 32.334 48 31.518 48 25C48 18.482 47.97 17.664 47.855 15.104C47.735 12.549 47.33 10.805 46.74 9.279C46.125 7.7005 45.305 6.3615 43.97 5.0275C42.6349 3.6925 41.2999 2.8725 39.7199 2.26C38.1899 1.6665 36.4449 1.262 33.8899 1.145C31.3298 1.0285 30.5148 1 23.9947 1H24.0018ZM21.8487 5.325C22.4877 5.324 23.2007 5.325 24.0018 5.325C30.4098 5.325 31.1693 5.348 33.6999 5.463C36.0399 5.57 37.3099 5.961 38.1559 6.2895C39.2759 6.7245 40.0744 7.2445 40.9139 8.0845C41.7539 8.9245 42.2739 9.7245 42.7099 10.8445C43.0385 11.6895 43.43 12.9595 43.5365 15.2995C43.6515 17.8295 43.6765 18.5895 43.6765 24.9945C43.6765 31.3995 43.6515 32.1595 43.5365 34.6895C43.4295 37.0295 43.0385 38.2995 42.7099 39.1445C42.2749 40.2645 41.7539 41.062 40.9139 41.9015C40.0739 42.7415 39.2764 43.2615 38.1559 43.6965C37.3109 44.0265 36.0399 44.4165 33.6999 44.5235C31.1698 44.6385 30.4098 44.6635 24.0018 44.6635C17.5932 44.6635 16.8337 44.6385 14.3036 44.5235C11.9636 44.4155 10.6936 44.0245 9.8471 43.696C8.72709 43.261 7.92708 42.741 7.08707 41.901C6.24707 41.061 5.72706 40.263 5.29106 39.1425C4.96255 38.2975 4.57105 37.0275 4.46455 34.6875C4.34955 32.1575 4.32655 31.3975 4.32655 24.9885C4.32655 18.5795 4.34955 17.8235 4.46455 15.2935C4.57155 12.9535 4.96255 11.6835 5.29106 10.8375C5.72606 9.7175 6.24707 8.9175 7.08707 8.0775C7.92708 7.2375 8.72709 6.7175 9.8471 6.2815C10.6931 5.9515 11.9636 5.5615 14.3036 5.454C16.5177 5.354 17.3757 5.324 21.8487 5.319V5.325Z" fill="white"/>
<path d="M36.7613 9.25105C36.1916 9.25105 35.6347 9.41998 35.1611 9.73648C34.6875 10.053 34.3183 10.5028 34.1004 11.0291C33.8824 11.5555 33.8254 12.1346 33.9367 12.6933C34.0479 13.252 34.3223 13.7651 34.7251 14.1679C35.128 14.5706 35.6413 14.8448 36.2 14.9558C36.7588 15.0668 37.3379 15.0097 37.8641 14.7915C38.3903 14.5734 38.8401 14.2041 39.1564 13.7304C39.4728 13.2566 39.6415 12.6997 39.6413 12.13C39.6413 10.54 38.3513 9.25105 36.7613 9.25105Z" fill="white"/>
<path fill-rule="evenodd" clip-rule="evenodd" d="M23.9501 12.616C17.1436 12.616 11.625 18.1345 11.625 24.941C11.625 31.7475 17.1436 37.2635 23.9501 37.2635C30.7567 37.2635 36.2738 31.7475 36.2738 24.941C36.2738 18.1345 30.7567 12.616 23.9501 12.616ZM24 32.875C28.3493 32.875 31.875 29.3493 31.875 25C31.875 20.6508 28.3493 17.125 24 17.125C19.6508 17.125 16.125 20.6508 16.125 25C16.125 29.3493 19.6508 32.875 24 32.875Z" fill="white"/>
<path d="M8.46182 2.726L8.46159 2.72609C6.94297 3.31583 5.66404 4.09914 4.38266 5.38099L4.38246 5.38119C3.10014 6.66253 2.3167 7.94156 1.72488 9.46007L1.72487 9.46008C1.15212 10.9295 0.756387 12.6193 0.643507 15.1257L8.46182 2.726ZM8.46182 2.726C9.93096 2.15462 11.6206 1.75933 14.1284 1.64448L8.46182 2.726ZM4.38153 44.6164L4.38179 44.6166C5.66286 45.8991 6.94185 46.6843 8.45919 47.274L8.45922 47.274C9.92945 47.8454 11.6197 48.2407 14.127 48.3555C16.6756 48.4715 17.4844 48.5 23.9993 48.5C30.5151 48.5 31.3219 48.4715 33.8705 48.3555C36.3784 48.2407 38.0701 47.8454 39.5403 47.274L39.5404 47.2739C41.058 46.6844 42.335 45.8993 43.6162 44.6166L43.6165 44.6163C44.8987 43.3351 45.6821 42.0562 46.2739 40.5379C46.8421 39.0677 47.2378 37.3771 47.3555 34.8705C47.47 32.3223 47.5 31.5143 47.5 25C47.5 18.4857 47.47 17.6757 47.3555 15.1275C47.2378 12.6196 46.842 10.9294 46.2737 9.4596C45.682 7.94102 44.8986 6.66227 43.6165 5.38119L43.6164 5.38106C42.3337 4.09835 41.0587 3.31523 39.5392 2.7262L39.5391 2.72616C38.0657 2.15461 36.3749 1.75933 33.8671 1.64448L4.38153 44.6164ZM4.38153 44.6164C3.09967 43.335 2.31631 42.0561 1.72606 40.5374C1.15514 39.0682 0.759845 37.3786 0.644489 34.8709L4.38153 44.6164ZM9.6654 5.81568C10.5618 5.46603 11.8859 5.06454 14.2807 4.95453L14.2811 4.95451C16.5046 4.85408 17.3703 4.82401 21.8482 4.819L22.3487 4.81844V4.82458C22.6207 4.8245 22.9052 4.82463 23.2028 4.82477C23.4592 4.82488 23.7254 4.825 24.0018 4.825C30.4117 4.825 31.1804 4.84799 33.7226 4.96352L33.7227 4.96352C36.1179 5.07304 37.4412 5.47564 38.3369 5.8234L38.3369 5.82342C39.521 6.2833 40.3785 6.84142 41.2676 7.73105C42.1573 8.62074 42.7152 9.47959 43.1759 10.6631L43.176 10.6633C43.5238 11.558 43.9269 12.8815 44.0359 15.2768L44.0359 15.2768C44.1515 17.8183 44.1765 18.5873 44.1765 24.9945C44.1765 31.4017 44.1515 32.1707 44.0359 34.7122L44.0359 34.7123C43.9264 37.1075 43.5238 38.4309 43.176 39.3257C42.7159 40.5101 42.1567 41.3664 41.2674 42.2552M9.6654 5.81568L40.9139 41.9015M9.6654 5.81568C8.48199 6.27641 7.62318 6.8343 6.73352 7.72395C5.84397 8.61348 5.28487 9.47239 4.82498 10.6565L4.82496 10.6565C4.47719 11.5521 4.07459 12.8755 3.96507 15.2707L3.96506 15.2708C3.84953 17.8124 3.82655 18.5776 3.82655 24.9885C3.82655 31.3994 3.84953 32.1686 3.96506 34.7102L4.46455 34.6875M9.6654 5.81568L4.46455 34.6875M41.2674 42.2552L40.9139 41.9015M41.2674 42.2552C41.2674 42.2551 41.2674 42.2551 41.2675 42.2551L40.9139 41.9015M41.2674 42.2552C40.3782 43.1443 39.522 43.7024 38.3378 44.1622M40.9139 41.9015C40.0739 42.7415 39.2764 43.2615 38.1559 43.6965M38.3378 44.1622L38.1559 43.6965M38.3378 44.1622C37.4422 44.512 36.1175 44.9135 33.7227 45.023L33.7226 45.023C31.1811 45.1385 30.4121 45.1635 24.0018 45.1635C17.5909 45.1635 16.8224 45.1385 14.2809 45.023L14.2806 45.023C11.8855 44.9124 10.5622 44.5098 9.66621 44.1621L9.66608 44.1621C8.48224 43.7023 7.62326 43.1443 6.73352 42.2546C5.84402 41.3651 5.28597 40.5083 4.82509 39.3238L4.82503 39.3237C4.47721 38.429 4.07408 37.1055 3.96506 34.7102L4.46455 34.6875M38.3378 44.1622C38.3375 44.1624 38.3372 44.1625 38.3368 44.1626L38.1559 43.6965M38.1559 43.6965L4.46455 34.6875M14.1285 1.64448C16.6762 1.52854 17.4858 1.50002 23.9947 1.5L14.1285 1.64448ZM24.0018 1.5C30.5127 1.50002 31.3193 1.52854 33.867 1.64448L24.0018 1.5ZM22.3487 5.32458C22.1772 5.32462 22.0106 5.32475 21.8487 5.325V5.319L22.3487 5.32458ZM39.1413 12.13V12.1302C39.1415 12.601 39.002 13.0612 38.7406 13.4527C38.4792 13.8442 38.1075 14.1494 37.6726 14.3296C37.2378 14.5099 36.7592 14.5572 36.2975 14.4654C35.8357 14.3737 35.4116 14.1471 35.0786 13.8143C34.7457 13.4814 34.5189 13.0574 34.427 12.5957C34.3351 12.134 34.3822 11.6554 34.5623 11.2205C34.7425 10.7855 35.0475 10.4138 35.4389 10.1522C35.8303 9.89065 36.2905 9.75105 36.7613 9.75105C38.0754 9.75105 39.1413 10.8164 39.1413 12.13ZM0.5 25C0.5 18.4851 0.529988 17.6749 0.643495 15.126L0.644485 34.8708C0.528995 32.322 0.5 31.5152 0.5 25ZM12.125 24.941C12.125 18.4107 17.4197 13.116 23.9501 13.116C30.4805 13.116 35.7738 18.4106 35.7738 24.941C35.7738 31.4713 30.4806 36.7635 23.9501 36.7635C17.4196 36.7635 12.125 31.4713 12.125 24.941ZM24 33.375C28.6254 33.375 32.375 29.6254 32.375 25C32.375 20.3747 28.6254 16.625 24 16.625C19.3746 16.625 15.625 20.3747 15.625 25C15.625 29.6254 19.3746 33.375 24 33.375Z" stroke="black" stroke-opacity="0.2"/>
<path fill-rule="evenodd" clip-rule="evenodd" d="M117 25C117 11.7452 127.745 1 141 1C154.255 1 165 11.7452 165 25C165 38.2548 154.255 49 141 49C127.745 49 117 38.2548 117 25ZM140.281 20.5075L140.332 21.338L139.492 21.2363C136.437 20.8465 133.768 19.5245 131.501 17.3043L130.393 16.2027L130.108 17.0162C129.504 18.8296 129.89 20.7448 131.149 22.0328C131.82 22.7446 131.669 22.8463 130.511 22.4226C130.108 22.287 129.755 22.1854 129.722 22.2362C129.604 22.3548 130.007 23.8971 130.326 24.5072C130.763 25.3546 131.652 26.1851 132.626 26.6766L133.449 27.0664L132.475 27.0833C131.535 27.0833 131.501 27.1003 131.602 27.4562C131.938 28.5578 133.264 29.7272 134.741 30.2357L135.782 30.5916L134.876 31.1339C133.533 31.9135 131.955 32.3542 130.377 32.3881C129.621 32.405 129 32.4728 129 32.5237C129 32.6931 131.048 33.6422 132.24 34.0151C135.816 35.1167 140.063 34.6422 143.253 32.7609C145.519 31.422 147.785 28.7612 148.843 26.1851C149.414 24.8123 149.984 22.304 149.984 21.1007C149.984 20.3211 150.035 20.2194 150.975 19.2872C151.529 18.7449 152.049 18.1517 152.15 17.9822C152.318 17.6602 152.301 17.6602 151.445 17.9483C150.018 18.4568 149.817 18.389 150.522 17.6263C151.042 17.084 151.663 16.101 151.663 15.8129C151.663 15.762 151.411 15.8468 151.126 15.9993C150.824 16.1688 150.152 16.423 149.649 16.5756L148.742 16.8637L147.92 16.3044C147.466 15.9993 146.828 15.6604 146.493 15.5587C145.636 15.3214 144.327 15.3553 143.555 15.6265C141.456 16.3891 140.13 18.3551 140.281 20.5075Z" fill="white" stroke="black" stroke-opacity="0.2"/>
<path fill-rule="evenodd" clip-rule="evenodd" d="M234 25C234 11.7452 244.745 1 258 1C271.255 1 282 11.7452 282 25C282 38.2548 271.255 49 258 49C244.745 49 234 38.2548 234 25ZM260.502 39.1115V26.0542H264.106L264.584 21.5546H260.502L260.508 19.3025C260.508 18.1289 260.619 17.5001 262.305 17.5001H264.558V13H260.953C256.623 13 255.099 15.1828 255.099 18.8536V21.5551H252.4V26.0547H255.099V39.1115H260.502Z" fill="white" stroke="black" stroke-opacity="0.2"/>
</svg>
