<svg width="116" height="115" viewBox="0 0 116 115" fill="none" xmlns="http://www.w3.org/2000/svg">
<circle cx="58" cy="38.3334" r="13.375" stroke="#222222" stroke-width="2" stroke-linecap="round"/>
<path d="M65.2626 30.448C66.3483 28.5674 67.9673 27.051 69.9148 26.0906C71.8624 25.1302 74.051 24.7689 76.2039 25.0523C78.3568 25.3357 80.3773 26.2512 82.0099 27.683C83.6425 29.1147 84.8138 30.9984 85.3759 33.0959C85.9379 35.1934 85.8653 37.4104 85.1673 39.4667C84.4693 41.5229 83.1772 43.326 81.4545 44.6479C79.7317 45.9698 77.6557 46.7512 75.4889 46.8932C73.322 47.0352 71.1618 46.5315 69.2812 45.4458" stroke="#222222" stroke-width="2"/>
<path d="M50.7374 30.448C49.6517 28.5674 48.0327 27.051 46.0852 26.0906C44.1376 25.1302 41.949 24.7689 39.7961 25.0523C37.6432 25.3357 35.6227 26.2512 33.9901 27.683C32.3575 29.1147 31.1862 30.9984 30.6241 33.0959C30.0621 35.1934 30.1347 37.4104 30.8327 39.4667C31.5307 41.5229 32.8228 43.326 34.5455 44.6479C36.2683 45.9698 38.3443 46.7512 40.5111 46.8932C42.678 47.0352 44.8382 46.5315 46.7188 45.4458" stroke="#222222" stroke-width="2"/>
<path d="M58 59.8959C81.4307 59.8959 84.0299 82.621 84.3182 87.663C84.3498 88.2144 83.9065 88.6459 83.3542 88.6459H32.6459C32.0936 88.6459 31.6503 88.2144 31.6819 87.663C31.9702 82.621 34.5694 59.8959 58 59.8959Z" stroke="#222222" stroke-width="2" stroke-linecap="round"/>
<path d="M93.7926 77.9727L92.8039 78.1227L93.7926 77.9727ZM63.209 60.3074L62.4705 59.6332L61.2296 60.9922L63.0451 61.2939L63.209 60.3074ZM82.8271 79.0625L81.8665 79.3404L82.0754 80.0625H82.8271V79.0625ZM74.7708 56.1041C81.5681 56.1041 85.872 60.3023 88.6194 65.2662C91.374 70.2433 92.4548 75.8221 92.8039 78.1227L94.7812 77.8227C94.4196 75.4394 93.295 69.584 90.3692 64.2977C87.4362 58.9983 82.5846 54.1041 74.7708 54.1041V56.1041ZM63.9475 60.9817C66.5619 58.1183 70.0518 56.1041 74.7708 56.1041V54.1041C69.3959 54.1041 65.3956 56.4295 62.4705 59.6332L63.9475 60.9817ZM63.0451 61.2939C74.8352 63.2532 79.7756 72.1134 81.8665 79.3404L83.7877 78.7845C81.5987 71.2183 76.2619 61.4629 63.3729 59.321L63.0451 61.2939ZM92.8324 78.0625H82.8271V80.0625H92.8324V78.0625ZM92.8039 78.1227C92.8034 78.1198 92.803 78.1099 92.8069 78.0972C92.8104 78.0858 92.8157 78.0776 92.8202 78.0725C92.8246 78.0676 92.8288 78.0649 92.8319 78.0635C92.8358 78.0617 92.8368 78.0625 92.8324 78.0625V80.0625C94.0019 80.0625 94.9669 79.046 94.7812 77.8227L92.8039 78.1227Z" fill="#222222"/>
<path d="M52.791 60.3074L52.955 61.2939L54.7704 60.9922L53.5295 59.6332L52.791 60.3074ZM22.2073 77.9727L21.2187 77.8227L22.2073 77.9727ZM33.1729 79.0625V80.0625H33.9246L34.1335 79.3404L33.1729 79.0625ZM41.2292 56.1041C45.9483 56.1041 49.4381 58.1183 52.0525 60.9817L53.5295 59.6332C50.6044 56.4295 46.6041 54.1041 41.2292 54.1041V56.1041ZM23.196 78.1227C23.5451 75.8221 24.6259 70.2433 27.3806 65.2662C30.128 60.3023 34.432 56.1041 41.2292 56.1041V54.1041C33.4155 54.1041 28.5638 58.9983 25.6308 64.2977C22.7049 69.5839 21.5803 75.4394 21.2187 77.8227L23.196 78.1227ZM23.1675 78.0625C23.1631 78.0625 23.1641 78.0617 23.168 78.0635C23.1711 78.0649 23.1753 78.0676 23.1797 78.0725C23.1842 78.0776 23.1895 78.0858 23.193 78.0972C23.1969 78.1099 23.1965 78.1198 23.196 78.1227L21.2187 77.8227C21.033 79.046 21.998 80.0625 23.1675 80.0625V78.0625ZM33.1729 78.0625H23.1675V80.0625H33.1729V78.0625ZM34.1335 79.3404C36.2244 72.1134 41.1648 63.2532 52.955 61.2939L52.6271 59.321C39.7381 61.4629 34.4013 71.2183 32.2123 78.7845L34.1335 79.3404Z" fill="#222222"/>
</svg>
