<svg width="116" height="115" viewBox="0 0 116 115" fill="none" xmlns="http://www.w3.org/2000/svg">
<path d="M68.5833 14.375V13.375H67.5833H48.4166H47.4166V14.375V18.1667C47.4166 18.1796 47.4166 18.1927 47.4166 18.206C47.4165 18.4059 47.4163 18.6439 47.4438 18.8486C47.4771 19.0956 47.566 19.4373 47.856 19.7273C48.146 20.0173 48.4877 20.1062 48.7347 20.1394C48.9394 20.167 49.1774 20.1668 49.3772 20.1667C49.3905 20.1667 49.4037 20.1667 49.4166 20.1667H66.5833C66.5962 20.1667 66.6094 20.1667 66.6227 20.1667C66.8226 20.1668 67.0605 20.167 67.2652 20.1394C67.5122 20.1062 67.854 20.0173 68.144 19.7273C68.4339 19.4373 68.5229 19.0956 68.5561 18.8485C68.5836 18.6439 68.5834 18.4059 68.5833 18.206C68.5833 18.1927 68.5833 18.1796 68.5833 18.1667V14.375Z" stroke="#222222" stroke-width="2"/>
<rect x="30.25" y="10.5834" width="55.5" height="93.8333" rx="1" stroke="#222222" stroke-width="2"/>
<circle cx="58" cy="86.25" r="4.79167" fill="#222222"/>
</svg>
