<svg width="49" height="48" viewBox="0 0 49 48" fill="none" xmlns="http://www.w3.org/2000/svg">
<path d="M0.5 24C0.5 10.7452 11.2452 0 24.5 0C37.7548 0 48.5 10.7452 48.5 24C48.5 37.2548 37.7548 48 24.5 48C11.2452 48 0.5 37.2548 0.5 24Z" fill="#55ACEE"/>
<path d="M23.7812 19.5075L23.8316 20.338L22.9922 20.2363C19.9369 19.8465 17.2677 18.5245 15.0013 16.3043L13.8934 15.2027L13.608 16.0162C13.0036 17.8297 13.3897 19.7448 14.6488 21.0328C15.3203 21.7447 15.1692 21.8464 14.0109 21.4227C13.608 21.2871 13.2554 21.1854 13.2219 21.2362C13.1044 21.3549 13.5073 22.8971 13.8262 23.5073C14.2627 24.3547 15.1524 25.1851 16.1261 25.6766L16.9487 26.0664L15.975 26.0834C15.0349 26.0834 15.0013 26.1003 15.1021 26.4562C15.4378 27.5578 16.764 28.7273 18.2413 29.2357L19.2822 29.5916L18.3756 30.1339C17.0326 30.9136 15.4546 31.3542 13.8766 31.3881C13.1211 31.4051 12.5 31.4728 12.5 31.5237C12.5 31.6932 14.5481 32.6423 15.74 33.0151C19.3157 34.1167 23.563 33.6422 26.7526 31.761C29.0189 30.4221 31.2852 27.7612 32.3428 25.1851C32.9136 23.8123 33.4844 21.304 33.4844 20.1007C33.4844 19.3211 33.5347 19.2194 34.4748 18.2873C35.0288 17.7449 35.5492 17.1517 35.65 16.9823C35.8178 16.6603 35.8011 16.6603 34.9449 16.9484C33.518 17.4568 33.3165 17.389 34.0216 16.6264C34.542 16.084 35.1631 15.101 35.1631 14.8129C35.1631 14.7621 34.9113 14.8468 34.6259 14.9993C34.3238 15.1688 33.6523 15.423 33.1486 15.5756L32.2421 15.8637L31.4195 15.3044C30.9663 14.9993 30.3283 14.6604 29.9926 14.5587C29.1364 14.3214 27.827 14.3553 27.0548 14.6265C24.9563 15.3892 23.6301 17.3551 23.7812 19.5075Z" fill="white"/>
</svg>
